<svg id="Capa_1" enable-background="new 0 0 512 512" height="512" viewBox="0 0 512 512" width="512" xmlns="http://www.w3.org/2000/svg"><g><g><path d="m256 512c-46.106 0-91.307-12.395-130.718-35.844-3.588-2.135-4.766-6.774-2.631-10.362 2.134-3.589 6.775-4.767 10.362-2.631 37.074 22.058 79.602 33.717 122.987 33.717 132.821 0 240.88-108.058 240.88-240.88s-108.058-240.88-240.88-240.88-240.88 108.058-240.88 240.88c0 72.656 32.318 140.708 88.668 186.703 3.235 2.641 3.716 7.403 1.076 10.637-2.64 3.236-7.403 3.717-10.637 1.077-59.883-48.881-94.227-121.2-94.227-198.417 0-68.38 26.629-132.667 74.981-181.02 48.352-48.351 112.639-74.98 181.019-74.98s132.667 26.629 181.019 74.98c48.352 48.353 74.981 112.64 74.981 181.02s-26.629 132.667-74.98 181.02c-48.353 48.351-112.64 74.98-181.02 74.98z"/></g><g><g><path d="m265.065 442.824c-16.945.002-32.079-8.924-42.401-25.664-12.866-20.868-12.794-43.472-11.028-62.83.782-8.574 3.464-27.924 3.618-29.042h-11.86c-15.886 0-51.491.102-66.061.146-.042 0-.085 0-.127 0-8.222 0-16.148-2.466-22.929-7.136-3.593-2.473-6.758-5.456-9.406-8.866-2.561-3.298-1.963-8.046 1.334-10.607 3.298-2.558 8.048-1.963 10.608 1.335 1.694 2.18 3.725 4.094 6.038 5.686 4.247 2.925 9.21 4.469 14.356 4.469h.08c14.578-.043 50.2-.146 66.107-.146h16.583c6.458-.15 11.905 6.079 10.899 12.459-1.483 11.057-3.207 22.323-4.184 33.077-1.54 16.877-1.694 36.433 8.841 53.521 10.102 16.385 25.091 22.136 42.231 16.221-1.556-14.377-3.281-31.263-4.396-48.213-.427-6.476.763-12.979 3.264-17.839 8.764-17.033 17.827-34.252 26.592-50.903 6.918-13.142 14.071-26.731 21.023-40.128 1.898-3.653 5.634-5.923 9.752-5.926 25.927-.011 35.24.007 47.016.18 1.891.023 3.696-.706 5.06-2.052 1.362-1.347 2.113-3.141 2.113-5.054v-124.73c0-1.911-.75-3.704-2.112-5.05-1.363-1.346-3.188-2.035-5.076-2.05-8.038.118-23.54.179-46.059.183-4.175.001-7.56-3.383-7.561-7.559-.001-4.175 3.383-7.56 7.559-7.561 22.445-.004 37.875-.065 45.858-.181.095-.001.189-.002.283-.002 5.897 0 11.428 2.271 15.622 6.413 4.26 4.208 6.607 9.822 6.607 15.807v124.729c0 5.986-2.347 11.601-6.608 15.81-4.194 4.144-9.728 6.416-15.61 6.416-.093 0-.185 0-.279-.002-11.308-.165-20.351-.196-44.301-.179-6.605 12.708-13.361 25.543-19.907 37.977-8.749 16.621-17.796 33.808-26.527 50.778-1.244 2.419-1.866 6.223-1.622 9.928 1.119 16.991 2.867 34 4.431 48.396.796 7.343-2.454 12.362-9.661 14.92-6.186 2.194-12.284 3.269-18.16 3.269z"/></g><g><path d="m107.173 275.807c-1.13 0-2.277-.254-3.357-.791-3.74-1.857-5.265-6.394-3.407-10.134.524-1.055 1.096-2.093 1.711-3.106-4.597-5.073-10.617-14.33-10.617-27.995 0-15.796 9.663-25.463 15.761-29.988-3.098-16.895 1.005-37.034 20.966-47.309-.43-1.742-.808-3.55-1.028-5.474-1.2-10.525 2.217-21.208 9.375-29.31 7.083-8.018 17.196-12.676 27.745-12.781 42.891-.425 91.657-.459 133.792-.092 4.176.036 7.53 3.451 7.494 7.626-.036 4.177-3.433 7.527-7.626 7.494-42.046-.367-90.709-.337-133.509.092-6.366.063-12.249 2.788-16.564 7.672-4.328 4.899-6.4 11.308-5.684 17.584.219 1.918.786 4.017 1.387 6.24l.102.377c1.418 5.255-1.294 10.827-6.309 12.96-18.108 7.707-17.067 24.778-14.835 34.269 1.065 4.526-.85 9.244-4.766 11.739-4.177 2.661-11.182 8.653-11.182 18.902 0 9.953 4.889 16.164 7.803 18.981l.14.117c4.444 3.814 5.143 10.41 1.603 15.039-2.177 3.486-4.205 8.17-8.995 7.888z"/></g></g></g></svg>